<svg width="49" height="50" xmlns="http://www.w3.org/2000/svg">

 <g>
  <title>background</title>
  <rect fill="none" id="canvas_background" height="52" width="51" y="-1" x="-1"/>
 </g>
 <g>
  <title>Layer 1</title>
  <path id="svg_1" fill="#F7654A" d="m43.666652,7.999973l-39,0c-2.53125,0 -4.5,2.0625 -4.5,4.5l0,27c0,2.5312 1.96875,4.5 4.5,4.5l39,0c2.4375,0 4.5,-1.9688 4.5,-4.5l0,-27c0,-2.4375 -2.0625,-4.5 -4.5,-4.5zm0,4.5l0,3.84375c-2.1562,1.78125 -5.5312,4.40625 -12.6562,10.03125c-1.5938,1.2188 -4.6876,4.2188 -6.8438,4.125c-2.25,0.0938 -5.3438,-2.9062 -6.9375,-4.125c-7.125,-5.625 -10.5,-8.25 -12.5625,-10.03125l0,-3.84375l39,0zm-39,27l0,-17.3438c2.0625,1.6876 5.1562,4.125 9.75,7.7813c2.0625,1.5937 5.7188,5.1563 9.75,5.0625c3.9375,0.0938 7.5,-3.4688 9.6562,-5.0625c4.5938,-3.6563 7.6876,-6.0937 9.8438,-7.7813l0,17.3438l-39,0z"/>
 </g>
</svg>