<svg xmlns="http://www.w3.org/2000/svg"
 xmlns:xlink="http://www.w3.org/1999/xlink"
 width="35px" height="21px"  viewBox="0 0 35 21">
<path fill-rule="evenodd"  fill="#ffffff"
 d="M2.0,1.9997673 C2.0,1.9997673 34.0,1.9997673 34.0,1.9997673 C34.0,1.9997673 34.0,3.999977 34.0,3.999977 C34.0,3.999977 2.0,3.999977 2.0,3.999977 C2.0,3.999977 2.0,1.9997673 2.0,1.9997673 ZM2.0,9.9999275 C2.0,9.9999275 34.0,9.9999275 34.0,9.9999275 C34.0,9.9999275 34.0,11.999798 34.0,11.999798 C34.0,11.999798 2.0,11.999798 2.0,11.999798 C2.0,11.999798 2.0,9.9999275 2.0,9.9999275 ZM2.0,17.999748 C2.0,17.999748 34.0,17.999748 34.0,17.999748 C34.0,17.999748 34.0,19.999954 34.0,19.999954 C34.0,19.999954 2.0,19.999954 2.0,19.999954 C2.0,19.999954 2.0,17.999748 2.0,17.999748 Z"/>
</svg>