<svg xmlns="http://www.w3.org/2000/svg" width="500" height="161.1" viewBox="0 0 500 161.6"><defs><style>.cls-3{fill-rule:evenodd;fill:#2f6e59}</style></defs><g id="Слой_2"><g id="Layer_1"><path d="M46 102.5l1.61 10.34-23.24-9zm149.62 1.13l-18.16-2.83-3.12 12.2z" fill-rule="evenodd" fill="#8a1909"/><path d="M53 18.25S37.71 78.6 46.37 108c11 37.28 45.42 45.13 45.42 45.13s-3.38 7.16 7.53 7.54c8.18.28 24.46 2.05 33 0 5.14-1.25 3.46-7 3.46-7s33-8.64 42.82-42.53c11-37.83-5.77-92.31-5.77-92.31s.26-3.18 3.17-7.54c1.5-2.19-.32-4.39-3.17-8.69-2.69-4-10.14-2-10.14-2s-27.88 9.8-29.21 18.2c-1.36 8.6 10.42 8.11 10.42 8.11s2.92.32 3.76 4c2.45 11 4.91 34.74 4.91 34.74s2.77 54.28-38.49 54.69c-26.48.3-38.17-21.34-39.36-46.57-1.15-24.48 7.83-52.37 7.83-52.37s12.67-4.48 4.91-10.14C83.85 8.64 72.21 3 64 .84 57.6-.86 53.88.55 53.88.55s-4.19.93-4.33 10.45c-.03 3.81 3.45 7.25 3.45 7.25zm10.46 18.51a2.6 2.6 0 11-2.59 2.6 2.58 2.58 0 012.59-2.6zm-3.61 16.77A2.46 2.46 0 1157.4 56a2.46 2.46 0 012.45-2.47zm103.6-16.48A2.46 2.46 0 11161 39.5a2.45 2.45 0 012.45-2.45zm1.88 15a2.6 2.6 0 11-2.6 2.6 2.59 2.59 0 012.6-2.56zm-6.53 59.33a2.46 2.46 0 11-2.45 2.46 2.46 2.46 0 012.45-2.46zm-93-1.15a2.33 2.33 0 11-2.6 2.31 2.46 2.46 0 012.57-2.27z" fill="#78caa8" fill-rule="evenodd"/><path class="cls-3" d="M57.28 0s-6.81-.23-8.08 5.84a19.26 19.26 0 00-.58 5.51c.2 2 1.82 4.74 1.45 8.11-2 18.28-5.2 39.13-5.2 39.13s-5.52 39.12 5.49 60.86c11.69 25.55 41.28 33.61 41.28 33.61s-18.45-8.72-29.45-24.34C39.82 97 54.08 22.35 54.08 22.35a2 2 0 012.6-2 94.77 94.77 0 0018.77 2s-15.77-3.61-21.08-10.13S57.28 0 57.28 0zm5.23 30s7.16-2 5.49 8.43c-1.59 9.79-4.74 21-3.76 35.52s6.24 32.1 8.09 40.71c.81 3.78-2 7.51-2 7.51s5.45-2.26 4.62-8.09c-1.3-9.12-7.25-28.47-7.51-42.44-.31-15.33 2.75-25.64 3.73-34.36 1.27-11.15-8.66-7.22-8.66-7.22zm99-28.87s-25.7 9.18-28.3 16.45c-.66 1.88-1.24 4.22.58 6.36 4.79 5.63 7.39 2.25 10.1 4.33 3 2.31 3.15 6.47 3.76 9.24 16.83 76.6-28.88 82.86-28.88 82.86s23.1.78 33.5-27.71c8.34-22.93-3.18-65.55-3.18-65.55a66.57 66.57 0 0011.26-3.75A14.66 14.66 0 00165.3 20S154 23.45 146 23.71c-6.81.23-10.88-2.28-8.66-6.64 2.78-5.49 24.21-15.88 24.21-15.88zm-6.03 120.17s12.27.06 13.86-35.23c.58-12.82-.63-28.18-1.15-37.24-1.24-21.37-8.95-15-8.95-15s8.89-11 11.55 11.26c.89 7.48 2.42 32.49 1.15 46.2-3.35 36.56-16.46 30.01-16.46 30.01zM130.07 151s-28.2-2.28-36.38 0c-2.71.75-2.88 2.25-2.88 5.77 0 4.39 6.93 3.47 6.93 3.47s-3-.78-3.18-2.6c-.26-2.83-.66-4.07 2.89-5.2 4.13-1.3 11.78-1.35 18.19-1.15a119.9 119.9 0 0014.43-.29z"/><path class="cls-3" d="M181.3 100.51c-.21-.72-36.9-2.08-36.9-2.08a9.7 9.7 0 01-1.19 4.42 37.51 37.51 0 01-4.13 5.92s12.51-1.53 23-.58c5.61.55 16 4.36 16.23 4.13s3.19-11.09 2.99-11.81z"/><path d="M46.77 115.58s-5.65 1.85-15.3 2c-7.16.12-15.45-2.74-21.65-3.46a22 22 0 00-9.53.88l8.37-21.36L0 74.29a26 26 0 019.53-1.15A52.36 52.36 0 0121.66 76l-1.16 29.48zM220.3 74a14.27 14.27 0 00-9.81-.29c-7.74 2.62-12.71 2.59-12.71 2.59v28.6l-22.52 9.82s12.39 6.46 36.38-.87a10.73 10.73 0 019.24 1.44l-7.51-23.09zm-25.12-14.72l.29 44.75s-44.72-9.87-84.89.87c-45.73 12.24-86.33-1.44-86.33-1.44l-.86-45.91s37.82 12.53 83.15.86c45.02-11.57 88.64.87 88.64.87z" fill="#dc422d" fill-rule="evenodd"/><path d="M57 75.94l-3.44 23.68 6.35.28.58-1.44s2.63 2.51 8.08 1.44c6.27-1.24 8-7.53 8.38-10.1.32-2.08.69-8.92-4-11.55s-9.82 1.15-9.82 1.15a95 95 0 001.44-9.81C64.85 65.86 57 67 57 67l-2 7.22a3 3 0 011.45.57 2.39 2.39 0 01.55 1.15zm21.1 6.93c0-.61 2.6-6.35 2.6-6.35s4.3-1.24 5.49 1.73c1.09 2.8-.41 10.08-.58 13.86-.14 3 2 2 2 2l-2.89 5.2S79.6 101.17 79 97c-.52-3.27 1.36-10.92.86-13.28-.26-1.02-1.76-.72-1.76-.85zm13-17l-2 6.93s1.77-1 1.74 1.16c-.06 4-1.76 16.69-2 21.65-.21 3.9 5.48 2.89 5.48 2.89l3.47-5.77s-2.54.92-2.31-1.45c.49-5.17 2.22-17.75 2-23.1-.18-3.91-6.38-2.35-6.38-2.35zm6.64 14.44l2.59-6.64s5.35-1.67 5.49 2.6c.15 4.1-.69 9.21-.58 12.7.06 2.25 1.33 2.66 2 2.6 1.68-.11 3.07-2.22 3.18-3.75.49-5.72 1.44-16.17 1.44-16.17l5.78-1.16s-.69 12-1.16 17.62c-.11 1.32 1.74 1.44 1.74 1.44L115.64 95a5.44 5.44 0 01-2.89.57 4.38 4.38 0 01-2.31-1.73s-5.14 6.58-10.39 2.6c-2.08-1.59-.55-9.56-.29-13.28.24-3.16-2.02-2.89-2.02-2.89zM132.1 78l5.77-.58s.92-10.16-7.51-9.24c-7.59.84-10 9.56-10.1 11.55-.12 2.28-2.92 13.89 6.93 13.57 8.69-.26 10.39-11 10.39-11l-6.06.29s-.9 5-3.76 5.2-2.1-5.78-2-6.35c1.1-7.31 4.28-8.09 5.49-6.65a6.31 6.31 0 01.85 3.21zm7.79-12.41l2.31-5.78s4.85-1.24 5.49 1.44c.86 3.7-.29 10.11-.29 10.11l2.31-3.46h6.06l-6.35 11.26a20.77 20.77 0 002.31 4.33c.52.52 2.31-.58 2.31-.58l-.58 5.49s-2 2.39-4.33 2c-1.9-.32-2.89-3.18-2.89-3.18l-.57 3.78-5.78.29s1.88-17.47 2-24.25c.05-1.9-2-1.49-2-1.49zm18.19 4l2.89-5.2s4.42-.38 5.2 2.6c1.27 4.85-3 13.92 1.44 14.15a2.82 2.82 0 002.89-2 57.59 57.59 0 001.15-6.93c.46-3.64.87-6.93.87-6.93l6.06.29s-.89 5.39-1.73 11.26-1.68 12.73-4.91 15.88c-1.64 1.61-5.11 4.15-10.39 1.44-4-2-5.2-6.64-5.2-6.64l7.22.29s.06 2 1.73 2.31c3.29.63 4.33-5.2 4.33-5.2s-6.87 4-9.53-.87c-1.35-2.48.44-9.78.29-12.12a2.23 2.23 0 00-2.31-2.33zM67.45 83.74c2.19-.06 3.69 2.39 3.35 5.42s-2.4 5.55-4.59 5.58-3.7-2.4-3.35-5.43 2.39-5.52 4.59-5.57zm16.28-17a3.91 3.91 0 11-3.61 3.9 3.75 3.75 0 013.61-3.94z" fill="#fff" fill-rule="evenodd"/><path class="cls-3" d="M243.08 75.88l-7.3 50 13.43.61 1.21-3.06s5.57 5.34 17.09 3.06c13.25-2.63 16.83-15.91 17.7-21.37.69-4.39 1.47-18.85-8.55-24.4s-20.76 2.46-20.76 2.46a202.1 202.1 0 003.1-20.72c.66-7.89-15.89-5.49-15.89-5.49l-4.27 15.24a6.56 6.56 0 013.06 1.22 4.63 4.63 0 011.18 2.45zm44.56 14.64c-.09-1.27 5.48-13.43 5.48-13.43s9.13-2.62 11.61 3.67c2.31 5.89-.84 21.28-1.21 29.31-.29 6.26 4.27 4.27 4.27 4.27l-6.09 11s-10.83 3.93-12.22-4.88c-1.06-6.9 2.89-23 1.82-28.06-.46-2.25-3.63-1.53-3.66-1.88zm27.45-36l-4.27 14.63s3.73-2.05 3.67 2.46c-.12 8.4-3.7 35.28-4.27 45.76-.44 8.23 11.6 6.1 11.6 6.1l7.34-12.22s-5.37 1.94-4.88-3.06c1.06-10.91 4.7-37.53 4.27-48.82-.35-8.15-13.46-4.85-13.46-4.85zM329.16 85l5.48-14s11.26-3.58 11.61 5.49c.32 8.66-1.44 19.46-1.21 26.85.14 4.76 2.77 5.57 4.27 5.49 3.55-.23 6.44-4.71 6.73-7.94 1-12.1 3.06-34.19 3.06-34.19l12.21-2.45s-1.47 25.46-2.45 37.21c-.23 2.8 3.66 3.06 3.66 3.06L367 116.13s-3.5 1.79-6.09 1.21c-2.89-.63-4.88-3.66-4.88-3.66s-10.89 13.91-22 5.48c-4.41-3.38-1.18-20.18-.6-28.06.46-6.76-4.27-6.1-4.27-6.1zm72.61-4.87L414 78.94s2-21.51-15.88-19.52c-16.06 1.79-21.17 20.22-21.37 24.4-.23 4.85-6.15 29.34 14.64 28.67 18.36-.57 22-23.18 22-23.18l-12.82.6s-1.88 10.63-7.94 11c-6.35.4-4.45-12.25-4.27-13.43 2.34-15.45 9-17.06 11.6-14 1.76 2.06 1.81 6.68 1.81 6.68zm16.49-26.25l4.88-12.21s10.28-2.63 11.61 3.06c1.82 7.79-.61 21.36-.61 21.36l4.86-7.3h12.82l-13.41 23.79s2.86 7.1 4.88 9.15c1.1 1.13 4.88-1.21 4.88-1.21L447 102.13s-4.22 5.08-9.15 4.27c-4.05-.66-6.1-6.73-6.1-6.73l-1.21 7.94-12.21.61s3.95-36.9 4.27-51.28c.02-3.94-4.34-3.03-4.34-3.03zm38.43 8.55l6.09-11s9.36-.78 11 5.49c2.66 10.28-6.29 29.42 3.06 29.91a5.88 5.88 0 006.1-4.27A119.41 119.41 0 00485.36 68c.95-7.71 1.82-14.64 1.82-14.64l12.82.61s-1.91 11.43-3.67 23.79-3.52 26.88-10.36 33.58c-3.5 3.41-10.83 8.75-22 3.06-8.48-4.33-11-14-11-14l15.25.6s.14 4.19 3.67 4.88c6.92 1.36 9.15-11 9.15-11s-14.53 8.49-20.16-1.82c-2.88-5.28.9-20.67.61-25.64-.21-5.25-4.8-4.96-4.8-4.96zM265.14 92.34c4.62-.09 7.8 5 7.08 11.46s-5.05 11.7-9.67 11.81-7.8-5-7.08-11.46 5.03-11.69 9.67-11.81zm34.39-36c4.22 0 7.62 3.7 7.62 8.23s-3.4 8.23-7.62 8.23-7.62-3.69-7.62-8.23 3.44-8.24 7.62-8.24z"/></g></g></svg>