<svg xmlns="http://www.w3.org/2000/svg" width="210" height="203"><defs><linearGradient id="a" x1="1136" y1="2398" x2="1136" y2="2195" gradientUnits="userSpaceOnUse"><stop offset="0" stop-color="#3737f1"/><stop offset="1" stop-color="#5858fc"/></linearGradient></defs><path d="M1083.5 2342.46h-42a10.5 10.5 0 00-10.5 10.5v34.54a10.5 10.5 0 0010.5 10.5h42a10.5 10.5 0 0010.5-10.5v-34.54a10.5 10.5 0 00-10.5-10.5zm3.5 45.04a3.5 3.5 0 01-3.5 3.5h-42a3.5 3.5 0 01-3.5-3.5v-34.54a3.5 3.5 0 013.5-3.5h42a3.5 3.5 0 013.5 3.5v34.54zm143.5-115.5h-42a10.5 10.5 0 00-10.5 10.5v105a10.5 10.5 0 0010.5 10.5h42a10.5 10.5 0 0010.5-10.5v-105a10.5 10.5 0 00-10.5-10.5zm3.5 115.5a3.5 3.5 0 01-3.5 3.5h-42a3.5 3.5 0 01-3.5-3.5v-105a3.5 3.5 0 013.5-3.5h42a3.5 3.5 0 013.5 3.5v105zm-77-80.27h-42a10.5 10.5 0 00-10.5 10.5v69.77a10.5 10.5 0 0010.5 10.5h42a10.5 10.5 0 0010.5-10.5v-69.77a10.5 10.5 0 00-10.5-10.5zm3.5 80.27a3.5 3.5 0 01-3.5 3.5h-42a3.5 3.5 0 01-3.5-3.5v-69.77a3.5 3.5 0 013.5-3.5h42a3.5 3.5 0 013.5 3.5v69.77zm1.03-120.03a3.483 3.483 0 004.94 0l60.53-60.52v5.55a3.5 3.5 0 007 0v-14a3.408 3.408 0 00-.25-1.22 2.213 2.213 0 00-.16-.35 3.219 3.219 0 00-.49-.73 3.022 3.022 0 00-1.17-.89.351.351 0 01-.08-.05 3.4 3.4 0 00-1.22-.24c-.05 0-.09-.02-.13-.02h-14a3.5 3.5 0 000 7h5.55l-58.05 58.05-30.78-30.77a3.483 3.483 0 00-4.94 0l-36.03 36.02-16.78-16.77a3.483 3.483 0 00-4.94 0l-36.82 36.81a3.5 3.5 0 104.95 4.95l34.34-34.34 16.78 16.77a3.483 3.483 0 004.94 0l36.03-36.02z" transform="translate(-1031 -2195)" fill-rule="evenodd" fill="url(#a)"/></svg>