<svg xmlns="http://www.w3.org/2000/svg" width="500" height="279.39" viewBox="0 0 500 279.39"><g><g fill-rule="evenodd"><path d="M221.84 193.09l-99.42-98.84s-3.36-3-7.46-2.3c-5.18.82-8.63 5.17-8.63 5.17s-16.5 21.2-25.86 43.1c-9.89 23.17-12.64 47.13-12.64 47.13a14.5 14.5 0 004 9.76c3 2.95 5.74 1.72 5.74 1.72s-1.39-.94-2.87-4.59a15.51 15.51 0 016.9-19.54c3.85-2.26 17-4.64 22.41 7.47 5.5 12.26-5.2 17.23-3.45 17.24 37.66.16 117.24 1.15 117.24 1.15s4.7.19 5.75-1.72c1.45-2.61-1.71-5.75-1.71-5.75zm-24.54-6.28c5.85 1.43 10.14 4.47 9.58 6.78s-5.78 3-11.63 1.59-10.15-4.47-9.58-6.78 5.77-3.02 11.63-1.59zm39.15-.91l-.1-140.19s-.29-4.47-3.64-6.92c-4.23-3.08-9.75-2.46-9.75-2.46s-27.27.82-49.39 9.64c-23.39 9.34-41.71 26.73-41.71 26.73a14.57 14.57 0 00-4.09 9.75c0 4.19 3.65 7.73 3.65 7.73l96.9 98.14s3.18 3.46 5.27 2.85c2.86-.82 2.86-5.27 2.86-5.27zm-12.86-21.83c3.11 5.17 4 10.35 1.95 11.58s-6.21-2-9.33-7.12-4-10.35-2-11.57 6.26 1.95 9.38 7.11zm27 24.45l98.57-99.72s2.95-3.37 2.28-7.47c-.84-5.17-5.2-8.61-5.2-8.61s-19.71-18.61-41.64-27.89c-23.2-9.83-48.7-10.34-48.7-10.34a14.56 14.56 0 00-9.76 4.06c-2.94 3-2.84 8.05-2.84 8.05l-.16 137.92s-.18 4.7 1.74 5.74c2.61 1.42 5.74-1.74 5.74-1.74zm6.24-24.52c-1.41 5.86-4.45 10.16-6.76 9.6s-3-5.77-1.62-11.63 4.44-10.15 6.75-9.6 3.05 5.72 1.63 11.63zm2.54 35.52l142.35-.64s-7.17-6.89-4.6-14.94c3.17-9.89 11-9.56 10.92-10.35-.35-2.61-6-23.29-11-35.93-9.27-23.42-24.16-42.38-24.16-42.38a14.59 14.59 0 00-9.74-4.12c-4.19 0-7.74 3.62-7.74 3.62L257 191.34s-3.47 3.17-2.87 5.27c.8 2.86 5.24 2.87 5.24 2.87zm21.87-12.79c-5.17 3.1-10.36 3.95-11.59 1.91s2-6.21 7.15-9.31 10.36-4 11.58-1.92-2 6.22-7.14 9.32z" fill="#b5e051"/><path d="M53.46 158.62s-16.18 28-31.61 56.89C11.39 235.11-.49 255.38 0 266.66c.73 16.55 15.29 13.6 27 5.74 9.86-6.61 17.25-17.24 17.25-17.24S37 272.92 47.72 277c16 6.06 32.18-16.09 32.18-16.09L73.57 273l.58 2.87h16.09s29-55.26 44.25-56.89c11.82-1.27-24.14 55.16-24.14 55.16l1.16 2.3 16.66-1.15s29.47-57.18 43.68-55.75c8.84.9-8.28 18.39-19 39.08-4.41 8.54 3.06 23 17.24 19.54 10.4-2.53 26.44-23.56 26.44-23.56s-5 23 17.81 24.71c23.28 1.77 40.81-20.12 40.81-20.12s-.85 18.76 10.91 19c15.68.28 27-15.52 27-15.52s-1.87 16.5 17.82 15.52c35.23-1.75 43.67-36.21 43.67-36.21a23.27 23.27 0 009.2 2.87 24.81 24.81 0 009.2-1.72s-20.31 27-1.72 34.49c14.64 5.9 33.33-19 33.33-19l-8.05 15.52 1.73 2.3 14.94-.58s31.06-56 45.4-56.32c9.77-.24-19.14 30.83-19 44.82.19 15.15 16.63 20 29.31 7.47 10.12-10 31-38.5 31-38.5l-1.15-2.3-2.74-2.31s-29.36 43.92-39.08 43.09c-3.63-.31-1.22-7.16 4-16.09 8.09-13.77 21.23-32.57 10.92-40.8-12.51-10-29.88 9.77-29.88 9.77l5.17-8.62-1.15-2.3-17.82 1.15S397 270.18 381 270.67c-7.79.24 24.71-54 24.71-54l-1.72-2.3-16.66 1.15s-7.26 16.18-15.52 21.84c-7.18 4.92-15.51-.58-15.51-.58s4.23-28-9.2-25.28-5.74 18.38-5.74 18.38-12.58 47.68-32.18 42c-12.45-3.64 22.41-54.6 22.41-54.6l-.58-2.87h-17.78s-25.67 58.67-40.23 55.7c-11.59-2.38 23-52.88 23-52.88l-1.72-2.87-16.09.58s-11.85 24.22-26.44 39.65c-7.88 8.33-14.79 14-24.14 15-18 1.85-13.79-17.82-13.79-17.82s24.49-3.81 37.35-16.09a14.61 14.61 0 001.72-20.12c-2-2.4-13-8.06-32.17 2.88C206.66 226.41 200 242 200 242s-25.9 34.28-31.61 28.16c-4.53-4.85 15.29-25.6 20.12-40.22 3.82-11.58-6-17-9.2-17.82-12.72-3.14-28.16 17.82-28.16 17.82s5.05-14.23-8-17.24c-10.56-2.44-20.11 6.9-20.11 6.9l1.15-4-1.15-2.3-18.39 1.72s-11.57 21.38-24.74 37.85c-6.91 8.61-14.79 17.43-20.69 17.82-10.53.68 23.56-52.87 23.56-52.87l-1.73-3.45-15.51 1.15a259 259 0 01-22.41 32.76c-13.25 16-28.34 27.37-28.16 21.26.54-18.5 56.32-109.77 56.32-109.77l-.58-2.87-17.25 1.72zm36.12 21a9.2 9.2 0 11-9.49 9.2 9.34 9.34 0 019.49-9.2zM214.94 246s11.7-29.8 24.14-28.16c5.51.73 1.76 9.49-5.75 16.67C226.52 241 214.94 246 214.94 246m197.38-67.13a9.2 9.2 0 11-8.91 9.2 9.06 9.06 0 018.91-9.24zM38.52 173s11.33-20.56 13.21-23 9.2-2.3 9.2-2.3 11.71-47.15 52.87-84.48c33-29.93 88.17-49.45 128.74-48.28 61.7 1.79 121 33.91 151.71 78.74 33.67 49.08 35.05 111.49 35.05 111.49l16.67-.58s-2.66-73.66-47.7-131C361.45 26.65 299.45-.18 243.68 0 177 .22 143 17.72 105.76 46.55 43.74 94.62 38.52 173 38.52 173z" fill="#000"/></g></g></svg>