<svg xmlns="http://www.w3.org/2000/svg" width="155" height="116"><defs><linearGradient id="a" x1="1108.5" y1="5183" x2="1108.5" y2="5067" gradientUnits="userSpaceOnUse"><stop offset="0" stop-color="#3737f1"/><stop offset="1" stop-color="#5858fc"/></linearGradient></defs><path d="M1173.08 5067h-129.16a12.914 12.914 0 00-12.92 12.89v90.22a12.914 12.914 0 0012.92 12.89h129.16a12.914 12.914 0 0012.92-12.89v-90.22a12.914 12.914 0 00-12.92-12.89zm-129.08 6h129a8.33 8.33 0 011.43.72c-11.19 10.21-48.27 44.06-61.24 55.72a6.5 6.5 0 01-9.38 0c-12.97-11.66-50.06-45.52-61.24-55.72a8.33 8.33 0 011.43-.72zm-7 97v-90a7.9 7.9 0 01.82-1.89c8.56 7.81 34.43 31.43 51.21 46.66-16.72 14.33-42.6 38.81-51.23 47.02-.15-.55-.8-1.19-.8-1.79zm136 7h-129a7.778 7.778 0 01-1.54-.74c8.92-8.48 34.96-33.1 51.39-47.13 2.14 1.94 4.1 3.71 5.64 5.1a12.92 12.92 0 0018.02 0c1.54-1.39 3.5-3.16 5.64-5.1 16.43 14.03 42.47 38.65 51.39 47.13a7.778 7.778 0 01-1.54.74zm7-7a8.388 8.388 0 01-.8 1.79c-8.63-8.21-34.51-32.69-51.23-47.02 16.78-15.23 42.65-38.84 51.21-46.66a7.9 7.9 0 01.82 1.89v90z" transform="translate(-1031 -5067)" fill-rule="evenodd" fill="url(#a)"/></svg>