<svg xmlns="http://www.w3.org/2000/svg" width="500" height="173.64" viewBox="0 0 500 173.64"><defs><linearGradient id="a" x1="6908.2" y1="-2002.91" x2="6908.2" y2="-2176.55" gradientTransform="translate(-6488.53 2176.55)" gradientUnits="userSpaceOnUse"><stop offset="0" stop-color="#ff0074"/><stop offset="1" stop-color="#f62"/></linearGradient></defs><g><g fill-rule="evenodd"><path d="M55.14 49.54l-3.86 22.6s-14-2-12.13 1.65c1.17 2.33 9.65 7.27 12.67 16.54 3.32 10.19-2.32 22.67-7.72 27.57-16.46 15.06-44.1 5-44.1 5l4.41-23.75s19.85 5.09 20.4 0c.41-3.81-9.39-8.15-13.23-15.43-4.22-8-2-19.5 2.76-25.36 14.13-17.36 40.8-8.82 40.8-8.82zm12.13 0s-2.08 12.35-5.51 28.11c-5.63 25.85-9.84 47.81 20.39 48.52C116 127 120 106.93 124.61 78.76c2.62-16.14 5.51-29.22 5.51-29.22h-25.91S102 61.83 99.8 73.79C98 83.92 96.41 96 93.73 100.26c-1.23 1.94-3.53 2.07-5.51 2.2-7.54.5-2.54-12.85 0-27 2.28-12.73 5-25.91 5-25.91zm70.56 0L123.5 124h25.92l3.3-17.09s32.64 1.44 38.05-27c4.93-25.95-12.12-31.13-33.08-30.32-10.4.35-19.86-.05-19.86-.05zm64.51 0L187.46 124h26.46l2.21-14.33 6.06 14.88h51.27l3.86-6.61h19.84l1.1 6.06 25.91.55-13.78-75-19.85-.55-40.24 70.55-7.17-19.84s13.79-9.36 14.34-24.26c.31-8.43-1.78-16.55-11-22.05-6.17-3.68-8.91-3.66-25.36-3.86-9.93-.12-18.74 0-18.74 0zm86 49.62l5-8.27 1.1 8.27zm-64.5-27.56s7.58-1.17 7.17 5.51c-.53 8.48-9.38 7.72-9.38 7.72zm-65.05 0s7.43-.92 6.07 6.61c-1.23 6.8-8.28 6.62-8.28 6.62z"/><path d="M340 20.79l-.61 128.64s.25 13.9 7.25 19.33c12.65 9.81 27.17 1.81 27.17 1.81l113.55-63.42s13-6.74 12.64-18.15c-.4-12.39-12.08-19.93-12.08-19.93L372.56 3.28s-9.72-7.77-23.55.6C339.18 9.83 340 20.79 340 20.79z" fill="url(#a)"/><path d="M362.59 71.4l-8.82 49.6s-.64 2.69 3.31 2.76c5.82.1 6.61-3.31 6.61-3.31L367 99s12.21 9.15 20.95-13.79c1.15-3 4.42-12.23-2.21-14.88-6.27-2.54-13.74 2.73-13.74 2.73s1.39-5-4.41-5a5.37 5.37 0 00-5 3.34zm33.63-10.47l-7.17 38.6a2.83 2.83 0 002.76 2.75c7.64.59 8.27-2.2 8.27-2.2l7.17-38s.37-3.76-6.06-3.86c-4.09-.11-4.97 2.71-4.97 2.71zm27 11s-18.31-3.58-19.85 22c-.78 13 14.34 3.86 14.34 3.86s-1.12 3.26 1.65 3.86c4 .87 6.49.2 7.72-1.1a9.85 9.85 0 001.66-3.86l5.51-25.36s.94-3.18-6.61-2.76c-1.07.06-2.71 0-3.31.56a4.9 4.9 0 00-1.09 2.87zm12.67-.55l2.21 30.32-11 19.3s.14 1.84 3.31 2.2c7.79.9 9.92-1.65 9.92-1.65l26.47-49.06s0-3.78-6.07-3.87c-3.83 0-4.41 1.66-4.41 1.66l-9.38 21-.55-21s.45-3-6.62-1.66c-3.76.7-3.85 2.76-3.85 2.76m-58.68 8.11c1.6.52 2.16 3.18 1.26 5.93s-2.92 4.55-4.51 4-2.16-3.18-1.26-5.93 2.93-4.55 4.51-4zm41 1.27a3.59 3.59 0 013.31 0c.48.25-.58 4.23-1 6.13-.29 1.25-.79 3-1.19 4.34-.11.34-2 .57-3 .36-1.64-.37-2.41-3.08-1.73-6a6.5 6.5 0 013.61-4.78z" fill="#fff"/></g></g></svg>